{
  "accessors": [
    {
      "bufferView": 2,
      "componentType": 5126,
      "count": 65532,
      "max": [
        2.0156118869781494,
        1.9127795696258545,
        0.3148663341999054
      ],
      "min": [
        -2.0087170600891113,
        -0.004170060157775879,
        -0.13398031890392303
      ],
      "type": "VEC3"
    },
    {
      "bufferView": 2,
      "byteOffset": 786384,
      "componentType": 5126,
      "count": 65532,
      "type": "VEC3"
    },
    {
      "bufferView": 1,
      "componentType": 5126,
      "count": 65532,
      "type": "VEC2"
    },
    {
      "bufferView": 0,
      "componentType": 5125,
      "count": 326385,
      "type": "SCALAR"
    },
    {
      "bufferView": 2,
      "byteOffset": 1572768,
      "componentType": 5126,
      "count": 52952,
      "max": [
        2.0128061771392822,
        1.8832043409347534,
        0.31124347448349
      ],
      "min": [
        -1.979607343673706,
        -0.0010869503021240234,
        -0.11386436969041824
      ],
      "type": "VEC3"
    },
    {
      "bufferView": 2,
      "byteOffset": 2208192,
      "componentType": 5126,
      "count": 52952,
      "type": "VEC3"
    },
    {
      "bufferView": 1,
      "byteOffset": 524256,
      "componentType": 5126,
      "count": 52952,
      "type": "VEC2"
    },
    {
      "bufferView": 0,
      "byteOffset": 1305540,
      "componentType": 5125,
      "count": 266559,
      "type": "SCALAR"
    },
    {
      "bufferView": 2,
      "byteOffset": 2843616,
      "componentType": 5126,
      "count": 13774,
      "max": [
        2.015293598175049,
        1.9127795696258545,
        0.3029022514820099
      ],
      "min": [
        -1.9687764644622803,
        -0.0010663270950317383,
        -0.12406152486801147
      ],
      "type": "VEC3"
    },
    {
      "bufferView": 2,
      "byteOffset": 3008904,
      "componentType": 5126,
      "count": 13774,
      "type": "VEC3"
    },
    {
      "bufferView": 1,
      "byteOffset": 947872,
      "componentType": 5126,
      "count": 13774,
      "type": "VEC2"
    },
    {
      "bufferView": 0,
      "byteOffset": 2371776,
      "componentType": 5125,
      "count": 44691,
      "type": "SCALAR"
    },
    {
      "bufferView": 2,
      "byteOffset": 3174192,
      "componentType": 5126,
      "count": 907,
      "max": [
        1.9907925128936768,
        1.882968783378601,
        0.3029022514820099
      ],
      "min": [
        -1.7236175537109375,
        0.07188212871551514,
        -0.09537315368652344
      ],
      "type": "VEC3"
    },
    {
      "bufferView": 2,
      "byteOffset": 3185076,
      "componentType": 5126,
      "count": 907,
      "type": "VEC3"
    },
    {
      "bufferView": 1,
      "byteOffset": 1058064,
      "componentType": 5126,
      "count": 907,
      "type": "VEC2"
    },
    {
      "bufferView": 0,
      "byteOffset": 2550540,
      "componentType": 5125,
      "count": 987,
      "type": "SCALAR"
    }
  ],
  "asset": {
    "generator": "fab-model-conversion",
    "version": "2.0"
  },
  "bufferViews": [
    {
      "buffer": 0,
      "byteLength": 2554488,
      "target": 34963
    },
    {
      "buffer": 0,
      "byteLength": 1065320,
      "byteOffset": 2554488,
      "byteStride": 8,
      "target": 34962
    },
    {
      "buffer": 0,
      "byteLength": 3195960,
      "byteOffset": 3619808,
      "byteStride": 12,
      "target": 34962
    }
  ],
  "buffers": [
    {
      "byteLength": 6815768,
      "uri": "scene.bin"
    }
  ],
  "extensionsUsed": [
    "KHR_materials_specular"
  ],
  "images": [
    {
      "uri": "textures/material0000_baseColor.jpeg"
    },
    {
      "uri": "textures/material0001_baseColor.jpeg"
    },
    {
      "uri": "textures/material0002_baseColor.jpeg"
    }
  ],
  "materials": [
    {
      "doubleSided": true,
      "name": "material0000",
      "pbrMetallicRoughness": {
        "baseColorTexture": {
          "index": 0
        },
        "metallicFactor": 0.0,
        "roughnessFactor": 0.966667
      }
    },
    {
      "doubleSided": true,
      "extensions": {
        "KHR_materials_specular": {
          "specularColorFactor": [
            1.0,
            1.0,
            1.0
          ],
          "specularFactor": 0.0
        }
      },
      "name": "material0001",
      "pbrMetallicRoughness": {
        "baseColorTexture": {
          "index": 1
        },
        "metallicFactor": 0.0,
        "roughnessFactor": 0.966667
      }
    },
    {
      "doubleSided": true,
      "name": "material0002",
      "pbrMetallicRoughness": {
        "baseColorTexture": {
          "index": 2
        },
        "metallicFactor": 0.0,
        "roughnessFactor": 0.966667
      }
    }
  ],
  "meshes": [
    {
      "name": "Object_0",
      "primitives": [
        {
          "attributes": {
            "NORMAL": 1,
            "POSITION": 0,
            "TEXCOORD_0": 2
          },
          "indices": 3,
          "material": 0,
          "mode": 4
        }
      ]
    },
    {
      "name": "Object_1",
      "primitives": [
        {
          "attributes": {
            "NORMAL": 5,
            "POSITION": 4,
            "TEXCOORD_0": 6
          },
          "indices": 7,
          "material": 0,
          "mode": 4
        }
      ]
    },
    {
      "name": "Object_2",
      "primitives": [
        {
          "attributes": {
            "NORMAL": 9,
            "POSITION": 8,
            "TEXCOORD_0": 10
          },
          "indices": 11,
          "material": 1,
          "mode": 4
        }
      ]
    },
    {
      "name": "Object_3",
      "primitives": [
        {
          "attributes": {
            "NORMAL": 13,
            "POSITION": 12,
            "TEXCOORD_0": 14
          },
          "indices": 15,
          "material": 2,
          "mode": 4
        }
      ]
    }
  ],
  "nodes": [
    {
      "children": [
        1
      ],
      "matrix": [
        1.0,
        0.0,
        0.0,
        0.0,
        0.0,
        2.220446049250313e-16,
        -1.0,
        0.0,
        0.0,
        1.0,
        2.220446049250313e-16,
        0.0,
        0.0,
        0.0,
        0.0,
        1.0
      ],
      "name": "Sketchfab_model"
    },
    {
      "children": [
        2
      ],
      "name": "root"
    },
    {
      "children": [
        3
      ],
      "matrix": [
        1.0,
        0.0,
        0.0,
        0.0,
        0.0,
        2.220446049250313e-16,
        1.0,
        0.0,
        0.0,
        -1.0,
        2.220446049250313e-16,
        0.0,
        0.0,
        0.0,
        0.0,
        1.0
      ],
      "name": "GLTF_SceneRootNode"
    },
    {
      "children": [
        4,
        5,
        6,
        7
      ],
      "name": "model_0"
    },
    {
      "mesh": 0,
      "name": "Object_4"
    },
    {
      "mesh": 1,
      "name": "Object_5"
    },
    {
      "mesh": 2,
      "name": "Object_6"
    },
    {
      "mesh": 3,
      "name": "Object_7"
    }
  ],
  "samplers": [
    {
      "magFilter": 9729,
      "minFilter": 9987,
      "wrapS": 10497,
      "wrapT": 10497
    }
  ],
  "scene": 0,
  "scenes": [
    {
      "name": "Sketchfab_Scene",
      "nodes": [
        0
      ]
    }
  ],
  "textures": [
    {
      "sampler": 0,
      "source": 0
    },
    {
      "sampler": 0,
      "source": 1
    },
    {
      "sampler": 0,
      "source": 2
    }
  ]
}
